<svg version="1.2" xmlns="http://www.w3.org/2000/svg" viewBox="0 0 570 570" width="570" height="570">
	<title>Adjustment-svg</title>
	<style>
		.s0 { fill: #192467 } 
	</style>
	<path id="Layer" fill-rule="evenodd" class="s0" d="m508.9 509.5q-0.8 15.5-0.7 29.9 0 15.8-15.6 14.2l-9.3-0.9c-1.9-0.2-3.7-0.7-5.4-1.6-1.7-0.9-3.1-2.1-4.4-3.5-1.2-1.5-2.1-3.2-2.7-4.9-0.5-1.8-0.8-3.7-0.6-5.6q1.6-19.7-2.8-36.6-0.3-1.3-0.9-2.5-0.5-1.3-1.2-2.4-0.6-1.2-1.5-2.2-0.8-1.1-1.8-2c-14.3-13.5-34-25.2-41.7-43.7-19.8-47.9 4.1-80.4 40-108.2q2.2-1.7 3.9-3.8 1.7-2.1 2.9-4.6 1.3-2.5 1.9-5.2 0.6-2.6 0.6-5.4l0.6-293.8c0-2.1 0.4-4.2 1.2-6.2 0.8-2 2-3.8 3.5-5.3 1.5-1.6 3.3-2.8 5.2-3.6 2-0.9 4.1-1.3 6.2-1.4l9.5-0.2q13.1-0.4 13.1 12.8l0.8 299.8q0 3 0.8 5.9 0.8 2.9 2.3 5.5 1.5 2.6 3.6 4.8 2.2 2.1 4.8 3.6c44.8 25.4 61.4 79.5 27.1 121.1-13 15.9-38.1 22.5-39.4 46zm14.3-94.3c0-4.5-0.9-8.9-2.6-13-1.7-4.1-4.2-7.9-7.4-11-3.1-3.2-6.9-5.7-11-7.4-4.1-1.7-8.5-2.6-13-2.6-4.5 0-8.9 0.9-13 2.6-4.1 1.7-7.9 4.2-11 7.4-3.2 3.1-5.7 6.9-7.4 11-1.7 4.1-2.6 8.5-2.6 13 0 4.5 0.9 8.9 2.6 13 1.7 4.1 4.2 7.9 7.4 11 3.1 3.2 6.9 5.7 11 7.4 4.1 1.7 8.5 2.6 13 2.6 4.5 0 8.9-0.9 13-2.6 4.1-1.7 7.9-4.2 11-7.4 3.2-3.1 5.7-6.9 7.4-11 1.7-4.1 2.6-8.5 2.6-13z"/>
	<path id="Layer" fill-rule="evenodd" class="s0" d="m115.1 484.1c-15.2 11.9-13.8 33-13.8 50.3q-0.1 18-18.1 17.9h-5.2q-17.2 0-17.9-17.3l-1.2-31.9q-0.1-2-0.6-3.9-0.5-1.9-1.4-3.6-0.9-1.7-2.2-3.2-1.3-1.5-2.9-2.7c-57.7-42.1-68.6-96.7-8.9-143.1 14-11 16.7-28.1 16.4-44.6q-1.6-104.6 1-267.8 0.4-20.5 20.9-21l4.5-0.1q16.2-0.3 16.4 15.9 1.8 145.9-0.7 282.6c-0.6 29.5 32.7 43.2 45 68.3q15.6 32 2.7 66.5c-6 16-20.9 27.4-34 37.7zm-0.7-68.8c0-4.4-0.9-8.8-2.6-12.9-1.7-4.1-4.2-7.9-7.3-11-3.1-3.1-6.9-5.6-11-7.3-4.1-1.7-8.5-2.6-12.9-2.6-4.4 0-8.8 0.9-12.9 2.6-4.1 1.7-7.9 4.2-11 7.3-3.1 3.1-5.6 6.9-7.3 11-1.7 4.1-2.6 8.5-2.6 12.9 0 4.4 0.9 8.8 2.6 12.9 1.7 4.1 4.2 7.9 7.3 11 3.1 3.1 6.9 5.6 11 7.3 4.1 1.7 8.5 2.6 12.9 2.6 4.4 0 8.8-0.9 12.9-2.6 4.1-1.7 7.9-4.2 11-7.3 3.1-3.1 5.6-6.9 7.3-11 1.7-4.1 2.6-8.5 2.6-12.9z"/>
	<path id="Layer" fill-rule="evenodd" class="s0" d="m252.7 226.4c-16.6-13.4-36.6-25-43.5-46.5-16.4-50.6 9.7-74.3 41.5-106.5q4.3-4.3 5.5-10.3c2.9-15.6-0.8-49.1 21.9-51.6q11.7-1.3 16.6 7.4c6.3 11.2 5.1 30.4 5.7 42.9q0 1.2 0.3 2.4 0.3 1.2 0.8 2.3 0.5 1.1 1.2 2.1 0.6 1 1.5 1.9 10.4 10.5 21.4 20.1c26.8 23.1 32.8 58.3 21.5 91.7-7.2 21.3-26.9 31.7-42 46.8q-1.1 1.1-2 2.4-0.9 1.3-1.5 2.8-0.6 1.5-0.9 3-0.3 1.5-0.3 3.1l0.6 293.9q0 17.2-17.3 18l-6.2 0.2q-21.4 0.9-21.3-20.5l1.6-294.8q0.1-6.6-5.1-10.8zm28.6-39.7c4.4-0.3 8.6-1.5 12.6-3.6 3.9-2 7.4-4.9 10.3-8.4 2.8-3.4 5-7.5 6.4-11.9 1.4-4.4 1.9-9 1.6-13.6-0.3-4.7-1.5-9.2-3.5-13.3-1.9-4.2-4.7-7.9-8-11-3.3-3-7.2-5.3-11.4-6.8-4.2-1.5-8.6-2.1-13-1.8-4.4 0.3-8.6 1.5-12.6 3.6-3.9 2-7.4 4.9-10.3 8.4-2.8 3.4-5 7.5-6.4 11.9-1.4 4.4-1.9 9-1.6 13.6 0.3 4.7 1.5 9.2 3.5 13.3 1.9 4.2 4.7 7.9 8 11 3.3 3 7.2 5.3 11.4 6.8 4.2 1.5 8.6 2.1 13 1.8z"/>
</svg>