<svg version="1.2" xmlns="http://www.w3.org/2000/svg" viewBox="0 0 1200 493" width="1200" height="493">
	<title>bold-svg</title>
	<style>
		.s0 { fill: #ffffff } 
	</style>
	<path id="Layer" class="s0" d="m71.6 63.4c0-3.9 3.1-7 7-7h95.7c3.9 0 7 3.1 7 7v363c0 3.9-3.1 7-7 7h-95.7c-3.9 0-7-3.1-7-7z"/>
	<path id="Layer" class="s0" d="m714.2 62.5c0-3.3 2.7-6 6-6h95.8c3.3 0 6 2.7 6 6v365c0 3.3-2.7 6-6 6h-95.8c-3.3 0-6-2.7-6-6z"/>
	<path id="Layer" class="s0" d="m1032.4 62.5c0-3.3 2.7-6 6-6h96.9c3.3 0 6 2.7 6 6v365c0 3.3-2.7 6-6 6h-96.9c-3.3 0-6-2.7-6-6z"/>
	<path id="Layer" class="s0" d="m399 285.9q-0.3 0-0.5-0.1-0.2-0.1-0.4-0.2-0.2-0.2-0.3-0.5-0.1-0.2-0.1-0.4v-0.6c0-15.3 3.4-30.5 9.8-44.6 6.5-14.2 15.9-27 27.8-37.9 11.9-10.8 26-19.3 41.6-25.2 15.5-5.8 32.2-8.8 49-8.8h3.6c16.8 0.1 33.4 3.1 48.9 9 15.5 5.9 29.6 14.5 41.5 25.4 11.8 10.8 21.2 23.7 27.7 37.9 6.4 14.1 9.6 29.3 9.6 44.6v0.6q0 0.2-0.1 0.5-0.1 0.2-0.3 0.4-0.1 0.2-0.4 0.3-0.2 0.1-0.5 0.1z"/>
	<path id="Layer" class="s0" d="m206 170.8q0-0.2 0.1-0.5 0.1-0.2 0.3-0.4 0.2-0.2 0.4-0.3 0.3-0.1 0.5-0.1h0.8c15.3 0 30.5 3.3 44.7 9.7 14.2 6.4 27.1 15.8 38 27.6 10.9 11.8 19.5 25.9 25.4 41.4 5.9 15.4 8.9 32 9 48.8v3.6c0 16.8-3 33.4-8.8 48.9-5.9 15.5-14.5 29.6-25.3 41.5-10.8 11.8-23.7 21.2-37.9 27.7-14.2 6.4-29.3 9.8-44.7 9.8h-0.8q-0.2 0-0.4-0.1-0.3-0.1-0.5-0.3-0.1-0.2-0.2-0.4-0.1-0.2-0.1-0.5z"/>
	<path id="Layer" class="s0" d="m1007.5 427.1q0 0.2-0.1 0.5-0.1 0.2-0.3 0.4-0.2 0.2-0.4 0.3-0.3 0.1-0.5 0.1h-0.6c-15.3 0-30.4-3.3-44.5-9.7-14.2-6.5-27-15.9-37.8-27.7-10.8-11.9-19.4-25.9-25.3-41.4-5.8-15.5-8.8-32.1-8.8-48.9v-3.6c0-16.8 3-33.4 8.8-48.9 5.9-15.4 14.5-29.5 25.3-41.4 10.8-11.8 23.6-21.2 37.8-27.6 14.1-6.5 29.2-9.8 44.5-9.8h0.6q0.2 0 0.5 0.1 0.2 0.1 0.4 0.3 0.2 0.2 0.3 0.4 0.1 0.3 0.1 0.5z"/>
	<path id="Layer" class="s0" d="m655.7 310.4q0.2 0 0.4 0.1 0.2 0 0.4 0.2 0.1 0.1 0.2 0.3 0.1 0.2 0.1 0.4v0.5c0 15.5-3.2 31-9.6 45.4-6.4 14.4-15.8 27.5-27.6 38.5-11.9 11.1-26 19.8-41.5 25.8-15.5 6.1-32.1 9.2-48.9 9.2h-2.8c-16.8 0.1-33.5-2.9-49-8.8-15.6-5.9-29.8-14.6-41.7-25.6-11.9-10.9-21.4-24-27.9-38.3-6.5-14.4-9.8-29.8-9.9-45.4v-0.4q0-0.2 0.1-0.4 0.1-0.2 0.2-0.4 0.2-0.1 0.4-0.2 0.2-0.1 0.4-0.1z"/>
</svg>