<svg version="1.2" xmlns="http://www.w3.org/2000/svg" viewBox="0 0 960 960" width="960" height="960">
	<title>help-svg</title>
	<style>
		.s0 { fill: #fcfcfd } 
	</style>
	<path id="Layer" class="s0" d="m562.9 90.8q-197.8-40.4-346.3 94.7c-10.5 9.4-16.2 19.3-24.1 30.5q-1 1.5-2.3 2.7-1.2 1.3-2.6 2.4-1.4 1.1-3 1.9-1.6 0.9-3.2 1.5c-29.3 10.6-29.1 34-45.4 55.3q-29.4 38.2-46.2 97.6-41.3 144.6 24.3 270.6c13.3 25.5 41.3 65.2 34 93.2-9 34.8-53.1 27.2-69.2 1.9-88.5-139-87.3-346.6-20.3-485q29.8-61.3 105-130.1 56.3-51.5 127.9-78.1 144.9-53.8 299.1-23.5c53 10.5 91.8 33.5 140 50.1q32.4 11.1 17.7 42l-3.3 6.9q-15.2 31.8-49.2 22-39-11.4-70.3-31.5-28.5-18.3-62.6-25.2z"/>
	<path id="Layer" class="s0" d="m605.6 485.1c-41.1 38.8-85.5 89.4-102.1 143.9-6.9 22.5-28.5 31.7-50.6 28.2-3.1-0.5-6.1-1.5-8.8-3.1-2.7-1.6-5.1-3.7-7-6.2-1.9-2.5-3.3-5.3-4.2-8.3-0.9-3-1.2-6.1-0.9-9.2q3.5-40.7 17.9-80.9c14.5-41.1 54.2-59.8 79.8-92.9 18.4-23.7 45-53.9 51.4-81.5q13.5-57.2-28.6-92.5c-28-23.4-88.5-31.9-125.6-19.4q-41.9 14-86.3 17.2c-2.6 0.1-5.2-0.3-7.6-1.3-2.4-0.9-4.6-2.4-6.3-4.4-1.8-1.9-3-4.2-3.8-6.7-0.7-2.5-0.8-5.1-0.4-7.6 13.5-78.2 84.7-90.4 152.7-93.8q73.5-3.6 129.3 55.1c52.7 55.8 58.6 115.2 46.2 185.3q-7.3 42.5-45.1 78.1z"/>
	<path id="Layer" class="s0" d="m217.6 831.6q3.9-13 17.2-10.9 74.2 12.1 127.6 33 40 15.7 86.5 18.9 77.2 5.3 167.9-21.4c123.3-36.2 210-144.2 239.3-267.2q23.1-97.1 0.5-225.3c-8-45.3-38.5-78.5-47-123.1q-4.5-24.1 18.5-32.4 4.3-1.5 8.8-2.5 34.8-7.5 47.1 25.9c22.6 61.8 64 136.8 64 203.9 0 82-6.1 179.2-43.1 255q-40.4 82.6-104.4 145.7-59.9 59.2-152.6 89.5-123.2 40.4-242.2 28.3c-54.3-5.6-110.1-34.3-162-53.9q-40.5-15.2-26.1-63.5z"/>
	<path id="Layer" class="s0" d="m434.7 762.1l-0.7-35.2c-0.1-2.8 0.4-5.5 1.4-8.1 1-2.6 2.5-4.9 4.5-6.9 1.9-2 4.2-3.5 6.7-4.6 2.5-1.1 5.3-1.7 8-1.7l17.4-0.1c2.8 0 5.6 0.5 8.2 1.6 2.6 1.1 5 2.7 6.9 4.8 2 2 3.5 4.4 4.5 7.1 1 2.6 1.4 5.4 1.3 8.3l-1.4 30.2c-0.1 2.1-0.5 4.1-1.2 6.1-0.7 2-1.7 3.8-3 5.5-1.2 1.6-2.7 3.1-4.4 4.3-1.7 1.2-3.6 2.2-5.5 2.8l-15.4 5.2c-3.1 1-6.4 1.3-9.6 0.8-3.2-0.5-6.2-1.7-8.9-3.6-2.6-1.9-4.8-4.3-6.3-7.2-1.5-2.8-2.4-6-2.5-9.3z"/>
</svg>