<svg version="1.2" xmlns="http://www.w3.org/2000/svg" viewBox="0 0 960 960" width="960" height="960">
	<title>info-svg</title>
	<style>
		.s0 { fill: #ffffff } 
	</style>
	<path id="Layer" class="s0" d="m618.8 115.5c-114.4-39.7-247.5-31.2-345.6 34.7-30 20.2-53.1 46.7-81.3 68.8q-15.1 11.7-27.6 30.3c-43.4 63.9-67.9 125.6-70.2 199.7-2 63.1-0.6 128.4 25.8 186.2q16.2 35.6 34.2 71.8 15.8 31.4-16.1 46.2l-3.1 1.5q-28 13-41-15c-19.2-41.9-48-81.2-60.7-124.6-20.1-68.8-19.1-150.8-10.5-221.4q5.8-47.1 26.9-86.3c24.2-45.2 49.4-96.6 83.2-133.8q66.9-73.8 156.3-115.4 15.1-7 62.8-17.3c80.2-17.5 173.5-16.2 250.6-4.5q45.9 7.1 105.3 32.5 35.4 15.1 39.6 53.8 0.3 2.5 0 5-3.4 37.3-39.8 28c-30.9-7.7-58.3-29.5-88.8-40.2z"/>
	<path id="Layer" class="s0" d="m478 211.9c25.1-25.8 64.8-27.8 88.8-4.4 24 23.3 23.1 63-2 88.8-25.1 25.8-64.8 27.8-88.7 4.5-24-23.4-23.1-63.1 1.9-88.9z"/>
	<path id="Layer" class="s0" d="m865.3 534.4q19.1-134-47.6-257.4-17.2-32.1-0.9-63.5 0.6-1.1 1.4-2.1 0.8-1 1.8-1.8 1-0.8 2.2-1.4 1.1-0.5 2.4-0.9c24.9-6.2 59.1 20.8 67.6 43.1q44.1 114.6 48.7 170.8c5.2 63.2 2.3 143.9-19.9 206-10.3 28.7-16.5 60-33.8 85.6q-52.3 76.8-103.1 122.7c-29.2 26.4-65.5 41.5-99.9 62.1q-19.2 11.4-39.9 18-116.4 36.7-222.4 26-96.7-9.7-190.4-68.9-4.1-2.6-6-7.3-10.1-25.6 3.8-52.8 0.6-1.1 1.5-2 0.8-0.9 1.9-1.5 1.1-0.7 2.3-0.9 1.2-0.3 2.4-0.3 15.4 0.7 30.2 7.2c46.1 20.3 96.4 44 146.5 46.5 89.5 4.5 191.6 9.3 265.7-42.1q41.5-28.7 89.8-75.2c60.3-58.1 84.2-129.4 95.7-209.9z"/>
	<path id="Layer" class="s0" d="m564 719.5c-11.2 43.1-106.3 36.6-137.3 27.4-48.7-14.6-45.9-77-37.3-116.8q14.1-65.3 27.2-133.8c8.6-45.1-6.3-51-39.4-71.7-1.7-1.1-3.2-2.5-4.3-4.1-1.1-1.7-1.9-3.5-2.3-5.5-0.3-1.9-0.3-4 0.1-5.9 0.5-2 1.3-3.8 2.5-5.4 33.6-45.2 114.4-28 155.2-6.7 40 20.8 15.6 112 2.9 143.1q-18.3 44.7-24.9 111.3-5.8 58.9 47.5 55.9c1.6-0.1 3.1 0.2 4.5 0.8 1.4 0.6 2.7 1.5 3.6 2.7 1 1.2 1.7 2.6 2 4.2 0.4 1.5 0.4 3 0 4.5z"/>
</svg>