<svg version="1.2" xmlns="http://www.w3.org/2000/svg" viewBox="0 0 420 420" width="420" height="420">
	<title>link-svg</title>
	<style>
		.s0 { fill: #041954 } 
	</style>
	<path id="Layer" class="s0" d="m304.9 243.9c-38.6 38.7-122.9 38.9-142.2-21.5q-3.2-9.7 2.9-18 0.6-0.8 1.5-1.4 1-0.5 2-0.6 1.1 0 2.1 0.3 1 0.4 1.8 1.2c14.4 13.7 23.9 31.9 42.3 40.7q34.4 16.5 67.4-14.2 43.6-40.6 87.7-85.9 41.7-42.9 11.9-84.9-18.1-25.5-44.9-25.4-30.1 0.1-52.7 22.6-23.1 23-65.1 64.4-15.2 14.9-21 16.3-33.9 7.7-9.9-17.1c30.1-31.3 81.2-93.7 119.8-104.5 39.2-11 82.1 4 100.3 41.3q27 55.8-24.4 107.2-41.3 41.4-79.5 79.5z"/>
	<path id="Layer" class="s0" d="m68.4 413.9c-65.2-25.3-77.8-96.2-28.9-146q44.9-45.6 86-84.6 50.7-48.1 113-12.3c12.8 7.4 36.6 32.9 27.8 49-0.7 1.4-1.8 2.6-3.2 3.5-1.4 0.8-2.9 1.3-4.5 1.4-1.6 0.1-3.2-0.3-4.7-1-1.4-0.7-2.6-1.8-3.5-3.1-25.9-38.4-64-61.3-104.7-23.5q-43.8 40.8-88.9 86.4c-65.3 66.1 18.9 148.9 82.2 90.5q38.7-35.8 80.6-79.4 9.1-9.5 21.7-9.2 3.9 0.1 5.9 4.1 0.6 1.2 0.8 2.5 0.2 1.2 0.1 2.5-0.2 1.3-0.7 2.5-0.6 1.2-1.4 2.1-29.2 33.2-64.9 68.6c-31 30.8-67.3 63.5-112.7 46z"/>
</svg>